<svg width="100" height="183" viewBox="0 0 100 183" fill="none" xmlns="http://www.w3.org/2000/svg">
<g clip-path="url(#clip0_11_129)">
<path d="M17.1068 15.5303L16.67 15.2173L16.2332 15.5303L0.77002 26.61V23.3153L16.67 11.9227L32.57 23.3153V26.61L17.1068 15.5303Z" stroke="#00D1A4" stroke-width="1.5"/>
<path d="M14.3365 0.75L0.75 10.4896V0.75H14.3365Z" stroke="white" stroke-width="1.5"/>
<path d="M32.58 10.489L19.0024 0.75H32.58V10.489Z" stroke="white" stroke-width="1.5"/>
<path d="M32.58 38.52V39.5815L33.5805 39.2269C38.7218 37.4048 44.2371 36.41 50 36.41C77.1958 36.41 99.25 58.4642 99.25 85.66C99.25 112.856 77.1958 134.91 50 134.91C22.8042 134.91 0.75 112.856 0.75 85.66V85.6592V85.6585V85.6577V85.657V85.6562V85.6554V85.6547V85.6539V85.6531V85.6524V85.6516V85.6509V85.6501V85.6493V85.6486V85.6478V85.6471V85.6463V85.6455V85.6448V85.644V85.6432V85.6425V85.6417V85.641V85.6402V85.6394V85.6387V85.6379V85.6372V85.6364V85.6356V85.6349V85.6341V85.6333V85.6326V85.6318V85.6311V85.6303V85.6295V85.6288V85.628V85.6273V85.6265V85.6257V85.625V85.6242V85.6234V85.6227V85.6219V85.6212V85.6204V85.6196V85.6189V85.6181V85.6173V85.6166V85.6158V85.6151V85.6143V85.6135V85.6128V85.612V85.6113V85.6105V85.6097V85.609V85.6082V85.6074V85.6067V85.6059V85.6052V85.6044V85.6036V85.6029V85.6021V85.6013V85.6006V85.5998V85.5991V85.5983V85.5975V85.5968V85.596V85.5953V85.5945V85.5937V85.593V85.5922V85.5914V85.5907V85.5899V85.5892V85.5884V85.5876V85.5869V85.5861V85.5854V85.5846V85.5838V85.5831V85.5823V85.5815V85.5808V85.58V85.5793V85.5785V85.5777V85.577V85.5762V85.5755V85.5747V85.5739V85.5732V85.5724V85.5716V85.5709V85.5701V85.5694V85.5686V85.5678V85.5671V85.5663V85.5656V85.5648V85.564V85.5633V85.5625V85.5617V85.561V85.5602V85.5595V85.5587V85.5579V85.5572V85.5564V85.5556V85.5549V85.5541V85.5534V85.5526V85.5518V85.5511V85.5503V85.5496V85.5488V85.548V85.5473V85.5465V85.5457V85.545V85.5442V85.5435V85.5427V85.5419V85.5412V85.5404V85.5396V85.5389V85.5381V85.5374V85.5366V85.5358V85.5351V85.5343V85.5336V85.5328V85.532V85.5313V85.5305V85.5297V85.529V85.5282V85.5275V85.5267V85.5259V85.5252V85.5244V85.5237V85.5229V85.5221V85.5214V85.5206V85.5198V85.5191V85.5183V85.5176V85.5168V85.516V85.5153V85.5145V85.5137V85.513V85.5122V85.5115V85.5107V85.5099V85.5092V85.5084V85.5077V85.5069V85.5061V85.5054V85.5046V85.5039V85.5031V85.5023V85.5016V85.5008V85.5V85.4993V85.4985V85.4978V85.497V85.4962V85.4955V85.4947V85.4939V85.4932V85.4924V85.4917V85.4909V85.4901V85.4894V85.4886V85.4879V85.4871V85.4863V85.4856V85.4848V85.484V85.4833V85.4825V85.4818V85.481V85.4802V85.4795V85.4787V85.478V85.4772V85.4764V85.4757V85.4749V85.4741V85.4734V85.4726V85.4719V85.4711V85.4703V85.4696V85.4688V85.468V85.4673V85.4665V85.4658V85.465V85.4642V85.4635V85.4627V85.462V85.4612V85.4604V85.4597V85.4589V85.4581V85.4574V85.4566V85.4559V85.4551V85.4543V85.4536V85.4528V85.452V85.4513V85.4505V85.4498V85.449V85.4482V85.4475V85.4467V85.446V85.4452V85.4444V85.4437V85.4429V85.4421V85.4414V85.4406V85.4399V85.4391V85.4383V85.4376V85.4368V85.4361V85.4353V85.4345V85.4338V85.433V85.4322V85.4315V85.4307V85.43V85.4292V85.4284V85.4277V85.4269V85.4261V85.4254V85.4246V85.4239V85.4231V85.4223V85.4216V85.4208V85.4201V85.4193V85.4185V85.4178V85.417V85.4163V85.4155V85.4147V85.414V85.4132V85.4124V85.4117V85.4109V85.4102V85.4094V85.4086V85.4079V85.4071V85.4063V85.4056V85.4048V85.4041V85.4033V85.4025V85.4018V85.401V85.4003V85.3995V85.3987V85.398V85.3972V85.3964V85.3957V85.3949V85.3942V85.3934V85.3926V85.3919V85.3911V85.3904V85.3896V85.3888V85.3881V85.3873V85.3865V85.3858V85.385V85.3843V85.3835V85.3827V85.382V85.3812V85.3804V85.3797V85.3789V85.3782V85.3774V85.3766V85.3759V85.3751V85.3744V85.3736V85.3728V85.3721V85.3713V85.3705V85.3698V85.369V85.3683V85.3675V85.3667V85.366V85.3652V85.3644V85.3637V85.3629V85.3622V85.3614V85.3606V85.3599V85.3591V85.3584V85.3576V85.3568V85.3561V85.3553V85.3545V85.3538V85.353V85.3523V85.3515V85.3507V85.35V85.3492V85.3485V85.3477V85.3469V85.3462V85.3454V85.3446V85.3439V85.3431V85.3424V85.3416V85.3408V85.3401V85.3393V85.3386V85.3378V85.337V85.3363V85.3355V85.3347V85.334V85.3332V85.3325V85.3317V85.3309V85.3302V85.3294V85.3287V85.3279V85.3271V85.3264V85.3256V85.3248V85.3241V85.3233V85.3226V85.3218V85.321V85.3203V85.3195V85.3187V85.318V85.3172V85.3165V85.3157V85.3149V85.3142V85.3134V85.3127V85.3119V85.3111V85.3104V85.3096V85.3088V85.3081V85.3073V85.3066V85.3058V85.305V85.3043V85.3035V85.3027V85.302V85.3012V85.3005V85.2997V85.2989V85.2982V85.2974V85.2967V85.2959V85.2951V85.2944V85.2936V85.2928V85.2921V85.2913V85.2906V85.2898V85.289V85.2883V85.2875V85.2868V85.286V85.2852V85.2845V85.2837V85.2829V85.2822V85.2814V85.2807V85.2799V85.2791V85.2784V85.2776V85.2769V85.2761V85.2753V85.2746V85.2738V85.273V85.2723V85.2715V85.2708V85.27V25.4052L16.6599 14.0028L32.58 25.4152V38.52ZM32.6453 77.694L32.645 77.6945C31.6138 80.0071 31.03 82.5709 31.03 85.27C31.03 95.5342 39.3458 103.85 49.61 103.85C59.8742 103.85 68.19 95.5342 68.19 85.27C68.19 75.0058 59.8742 66.69 49.61 66.69C42.0432 66.69 35.5415 71.214 32.6453 77.694Z" stroke="white" stroke-width="1.5"/>
</g>
<defs>
<clipPath id="clip0_11_129">
<rect width="100" height="183" fill="white"/>
</clipPath>
</defs>
</svg>
