<svg width="244" height="78" viewBox="0 0 244 78" fill="none" xmlns="http://www.w3.org/2000/svg">
<path d="M94.5025 63.7895V18.3815H104.535V40.6565C104.733 40.0405 105.239 39.3695 106.053 38.6435C106.889 37.8955 107.978 37.2575 109.32 36.7295C110.684 36.1795 112.224 35.9045 113.94 35.9045C116.58 35.9045 118.868 36.5535 120.804 37.8515C122.74 39.1495 124.236 40.8875 125.292 43.0655C126.348 45.2215 126.876 47.6195 126.876 50.2595C126.876 52.8995 126.348 55.3085 125.292 57.4865C124.236 59.6425 122.74 61.3695 120.804 62.6675C118.868 63.9435 116.58 64.5815 113.94 64.5815C112.488 64.5815 111.113 64.3175 109.815 63.7895C108.539 63.2835 107.428 62.6345 106.482 61.8425C105.558 61.0285 104.876 60.2145 104.436 59.4005V63.7895H94.5025ZM117.042 50.2595C117.042 49.0275 116.767 47.9275 116.217 46.9595C115.689 45.9695 114.952 45.1995 114.006 44.6495C113.082 44.0775 112.037 43.7915 110.871 43.7915C109.661 43.7915 108.572 44.0775 107.604 44.6495C106.658 45.1995 105.91 45.9695 105.36 46.9595C104.81 47.9275 104.535 49.0275 104.535 50.2595C104.535 51.4915 104.81 52.6025 105.36 53.5925C105.91 54.5605 106.658 55.3195 107.604 55.8695C108.572 56.4195 109.661 56.6945 110.871 56.6945C112.037 56.6945 113.082 56.4195 114.006 55.8695C114.952 55.3195 115.689 54.5605 116.217 53.5925C116.767 52.6025 117.042 51.4915 117.042 50.2595ZM140.709 63.7895H130.677V36.6965H140.709V40.8875H140.544C140.72 40.3815 141.149 39.7435 141.831 38.9735C142.513 38.1815 143.47 37.4775 144.702 36.8615C145.934 36.2235 147.441 35.9045 149.223 35.9045C150.477 35.9045 151.632 36.1025 152.688 36.4985C153.744 36.8725 154.514 37.2355 154.998 37.5875L151.104 45.7385C150.796 45.3645 150.246 44.9795 149.454 44.5835C148.684 44.1655 147.716 43.9565 146.55 43.9565C145.208 43.9565 144.097 44.2975 143.217 44.9795C142.359 45.6615 141.721 46.4865 141.303 47.4545C140.907 48.4225 140.709 49.3355 140.709 50.1935V63.7895ZM158.033 63.7895V36.6965H168.065V63.7895H158.033ZM163.181 31.1195C161.597 31.1195 160.255 30.5695 159.155 29.4695C158.055 28.3475 157.505 27.0165 157.505 25.4765C157.505 23.9365 158.055 22.6055 159.155 21.4835C160.277 20.3395 161.619 19.7675 163.181 19.7675C164.215 19.7675 165.161 20.0315 166.019 20.5595C166.877 21.0655 167.57 21.7475 168.098 22.6055C168.626 23.4635 168.89 24.4205 168.89 25.4765C168.89 27.0165 168.329 28.3475 167.207 29.4695C166.085 30.5695 164.743 31.1195 163.181 31.1195ZM184.843 77.5175H174.91V36.6965H184.942V40.6565C185.25 40.0405 185.833 39.3695 186.691 38.6435C187.571 37.8955 188.682 37.2575 190.024 36.7295C191.388 36.1795 192.928 35.9045 194.644 35.9045C197.284 35.9045 199.539 36.5535 201.409 37.8515C203.301 39.1495 204.753 40.8875 205.765 43.0655C206.777 45.2215 207.283 47.6195 207.283 50.2595C207.283 52.8995 206.744 55.3085 205.666 57.4865C204.588 59.6425 203.07 61.3695 201.112 62.6675C199.176 63.9435 196.888 64.5815 194.248 64.5815C192.356 64.5815 190.739 64.2515 189.397 63.5915C188.077 62.9095 187.032 62.1615 186.262 61.3475C185.514 60.5115 185.041 59.8625 184.843 59.4005V77.5175ZM197.482 50.2595C197.482 49.0275 197.207 47.9275 196.657 46.9595C196.107 45.9695 195.359 45.1995 194.413 44.6495C193.489 44.0775 192.444 43.7915 191.278 43.7915C190.068 43.7915 188.979 44.0775 188.011 44.6495C187.065 45.1995 186.317 45.9695 185.767 46.9595C185.217 47.9275 184.942 49.0275 184.942 50.2595C184.942 51.4915 185.217 52.6025 185.767 53.5925C186.317 54.5605 187.065 55.3195 188.011 55.8695C188.979 56.4195 190.068 56.6945 191.278 56.6945C192.444 56.6945 193.489 56.4195 194.413 55.8695C195.359 55.3195 196.107 54.5605 196.657 53.5925C197.207 52.6025 197.482 51.4915 197.482 50.2595ZM226.153 64.5815C223.183 64.5815 220.543 63.9765 218.233 62.7665C215.945 61.5345 214.141 59.8515 212.821 57.7175C211.523 55.5615 210.874 53.0975 210.874 50.3255C210.874 47.5535 211.523 45.0895 212.821 42.9335C214.141 40.7555 215.945 39.0395 218.233 37.7855C220.543 36.5315 223.183 35.9045 226.153 35.9045C229.123 35.9045 231.741 36.5315 234.007 37.7855C236.273 39.0395 238.044 40.7555 239.32 42.9335C240.596 45.0895 241.234 47.5535 241.234 50.3255C241.234 53.0975 240.596 55.5615 239.32 57.7175C238.044 59.8515 236.273 61.5345 234.007 62.7665C231.741 63.9765 229.123 64.5815 226.153 64.5815ZM226.153 56.3315C227.297 56.3315 228.287 56.0785 229.123 55.5725C229.959 55.0665 230.608 54.3515 231.07 53.4275C231.532 52.5035 231.763 51.4585 231.763 50.2925C231.763 49.1045 231.532 48.0485 231.07 47.1245C230.608 46.2005 229.959 45.4745 229.123 44.9465C228.287 44.4185 227.297 44.1545 226.153 44.1545C225.009 44.1545 224.008 44.4185 223.15 44.9465C222.314 45.4745 221.654 46.2005 221.17 47.1245C220.708 48.0485 220.477 49.1045 220.477 50.2925C220.477 51.4585 220.708 52.5035 221.17 53.4275C221.654 54.3515 222.314 55.0665 223.15 55.5725C224.008 56.0785 225.009 56.3315 226.153 56.3315Z" fill="#1638D8"/>
<rect x="0.210938" width="76.6316" height="76.6316" rx="38.3158" fill="#1638D8"/>
<mask id="path-3-inside-1_59_102" fill="white">
<path d="M23.7891 23.0128V26.0026L28.6984 22.485L33.6077 26.0026V23.0128L28.6984 19.4952L23.7891 23.0128Z"/>
</mask>
<path d="M23.7891 23.0128V26.0026L28.6984 22.485L33.6077 26.0026V23.0128L28.6984 19.4952L23.7891 23.0128Z" fill="#00D1A4"/>
<path d="M23.7891 23.0128L21.4593 19.7613L19.7891 20.9581V23.0128H23.7891ZM23.7891 26.0026H19.7891V33.7895L26.1188 29.2541L23.7891 26.0026ZM28.6984 22.485L31.0281 19.2335L28.6984 17.5642L26.3686 19.2335L28.6984 22.485ZM33.6077 26.0026L31.278 29.2541L37.6077 33.7895V26.0026H33.6077ZM33.6077 23.0128H37.6077V20.9581L35.9375 19.7613L33.6077 23.0128ZM28.6984 19.4952L31.0281 16.2437L28.6984 14.5744L26.3686 16.2437L28.6984 19.4952ZM19.7891 23.0128V26.0026H27.7891V23.0128H19.7891ZM26.1188 29.2541L31.0281 25.7365L26.3686 19.2335L21.4593 22.7511L26.1188 29.2541ZM26.3686 25.7365L31.278 29.2541L35.9375 22.7511L31.0281 19.2335L26.3686 25.7365ZM37.6077 26.0026V23.0128H29.6077V26.0026H37.6077ZM35.9375 19.7613L31.0281 16.2437L26.3686 22.7467L31.278 26.2643L35.9375 19.7613ZM26.3686 16.2437L21.4593 19.7613L26.1188 26.2643L31.0281 22.7467L26.3686 16.2437Z" fill="#00D1A4" mask="url(#path-3-inside-1_59_102)"/>
<mask id="path-5-inside-2_59_102" fill="white">
<path d="M23.7842 18.3158V21.8393L28.6994 18.3158H23.7842Z"/>
</mask>
<path d="M23.7842 18.3158V21.8393L28.6994 18.3158H23.7842Z" fill="white"/>
<path d="M23.7842 18.3158V14.3158H19.7842V18.3158H23.7842ZM23.7842 21.8393H19.7842V29.6283L26.1147 25.0903L23.7842 21.8393ZM28.6994 18.3158L31.0299 21.5668L41.1449 14.3158H28.6994V18.3158ZM19.7842 18.3158V21.8393H27.7842V18.3158H19.7842ZM26.1147 25.0903L31.0299 21.5668L26.3689 15.0648L21.4537 18.5883L26.1147 25.0903ZM28.6994 14.3158H23.7842V22.3158H28.6994V14.3158Z" fill="white" mask="url(#path-5-inside-2_59_102)"/>
<mask id="path-7-inside-3_59_102" fill="white">
<path d="M33.6125 18.3158H28.7002L33.6125 21.8393V18.3158Z"/>
</mask>
<path d="M33.6125 18.3158H28.7002L33.6125 21.8393V18.3158Z" fill="white"/>
<path d="M33.6125 18.3158H37.6125V14.3158H33.6125V18.3158ZM28.7002 18.3158V14.3158H16.2608L26.3688 21.5661L28.7002 18.3158ZM33.6125 21.8393L31.2811 25.0896L37.6125 29.6311V21.8393H33.6125ZM33.6125 14.3158H28.7002V22.3158H33.6125V14.3158ZM26.3688 21.5661L31.2811 25.0896L35.9439 18.589L31.0316 15.0655L26.3688 21.5661ZM37.6125 21.8393V18.3158H29.6125V21.8393H37.6125Z" fill="white" mask="url(#path-7-inside-3_59_102)"/>
<path d="M31.6117 29.6736V32.5043L34.2798 31.5587C35.6089 31.0877 37.0344 30.8303 38.5269 30.8303C45.5633 30.8303 51.2697 36.5367 51.2697 43.573C51.2697 50.6094 45.5633 56.3158 38.5269 56.3158C31.4905 56.3158 25.7842 50.6094 25.7842 43.573V43.5728V43.5726V43.5724V43.5721V43.5719V43.5717V43.5715V43.5712V43.571V43.5708V43.5706V43.5703V43.5701V43.5699V43.5697V43.5695V43.5692V43.569V43.5688V43.5686V43.5683V43.5681V43.5679V43.5677V43.5674V43.5672V43.567V43.5668V43.5665V43.5663V43.5661V43.5659V43.5656V43.5654V43.5652V43.565V43.5647V43.5645V43.5643V43.5641V43.5638V43.5636V43.5634V43.5632V43.5629V43.5627V43.5625V43.5623V43.562V43.5618V43.5616V43.5614V43.5611V43.5609V43.5607V43.5605V43.5602V43.56V43.5598V43.5596V43.5593V43.5591V43.5589V43.5587V43.5584V43.5582V43.558V43.5578V43.5575V43.5573V43.5571V43.5569V43.5566V43.5564V43.5562V43.556V43.5557V43.5555V43.5553V43.5551V43.5549V43.5546V43.5544V43.5542V43.554V43.5537V43.5535V43.5533V43.5531V43.5528V43.5526V43.5524V43.5522V43.5519V43.5517V43.5515V43.5513V43.551V43.5508V43.5506V43.5504V43.5501V43.5499V43.5497V43.5495V43.5492V43.549V43.5488V43.5486V43.5483V43.5481V43.5479V43.5477V43.5474V43.5472V43.547V43.5468V43.5465V43.5463V43.5461V43.5459V43.5456V43.5454V43.5452V43.545V43.5447V43.5445V43.5443V43.5441V43.5438V43.5436V43.5434V43.5432V43.5429V43.5427V43.5425V43.5423V43.542V43.5418V43.5416V43.5414V43.5412V43.5409V43.5407V43.5405V43.5403V43.54V43.5398V43.5396V43.5394V43.5391V43.5389V43.5387V43.5385V43.5382V43.538V43.5378V43.5376V43.5373V43.5371V43.5369V43.5367V43.5364V43.5362V43.536V43.5358V43.5355V43.5353V43.5351V43.5349V43.5346V43.5344V43.5342V43.534V43.5337V43.5335V43.5333V43.5331V43.5328V43.5326V43.5324V43.5322V43.5319V43.5317V43.5315V43.5313V43.531V43.5308V43.5306V43.5304V43.5301V43.5299V43.5297V43.5295V43.5292V43.529V43.5288V43.5286V43.5283V43.5281V43.5279V43.5277V43.5275V43.5272V43.527V43.5268V43.5266V43.5263V43.5261V43.5259V43.5257V43.5254V43.5252V43.525V43.5248V43.5245V43.5243V43.5241V43.5239V43.5236V43.5234V43.5232V43.523V43.5227V43.5225V43.5223V43.5221V43.5218V43.5216V43.5214V43.5212V43.5209V43.5207V43.5205V43.5203V43.52V43.5198V43.5196V43.5194V43.5191V43.5189V43.5187V43.5185V43.5182V43.518V43.5178V43.5176V43.5173V43.5171V43.5169V43.5167V43.5164V43.5162V43.516V43.5158V43.5155V43.5153V43.5151V43.5149V43.5146V43.5144V43.5142V43.514V43.5138V43.5135V43.5133V43.5131V43.5129V43.5126V43.5124V43.5122V43.512V43.5117V43.5115V43.5113V43.5111V43.5108V43.5106V43.5104V43.5102V43.5099V43.5097V43.5095V43.5093V43.509V43.5088V43.5086V43.5084V43.5081V43.5079V43.5077V43.5075V43.5072V43.507V43.5068V43.5066V43.5063V43.5061V43.5059V43.5057V43.5054V43.5052V43.505V43.5048V43.5045V43.5043V43.5041V43.5039V43.5036V43.5034V43.5032V43.503V43.5027V43.5025V43.5023V43.5021V43.5018V43.5016V43.5014V43.5012V43.5009V43.5007V43.5005V43.5003V43.5V43.4998V43.4996V43.4994V43.4992V43.4989V43.4987V43.4985V43.4983V43.498V43.4978V43.4976V43.4974V43.4971V43.4969V43.4967V43.4965V43.4962V43.496V43.4958V43.4956V43.4953V43.4951V43.4949V43.4947V43.4944V43.4942V43.494V43.4938V43.4935V43.4933V43.4931V43.4929V43.4926V43.4924V43.4922V43.492V43.4917V43.4915V43.4913V43.4911V43.4908V43.4906V43.4904V43.4902V43.4899V43.4897V43.4895V43.4893V43.489V43.4888V43.4886V43.4884V43.4881V43.4879V43.4877V43.4875V43.4872V43.487V43.4868V43.4866V43.4863V43.4861V43.4859V43.4857V43.4855V43.4852V43.485V43.4848V43.4846V43.4843V43.4841V43.4839V43.4837V43.4834V43.4832V43.483V43.4828V43.4825V43.4823V43.4821V43.4819V43.4816V43.4814V43.4812V43.481V43.4807V43.4805V43.4803V43.4801V43.4798V43.4796V43.4794V43.4792V43.4789V43.4787V43.4785V43.4783V43.478V43.4778V43.4776V43.4774V43.4771V43.4769V43.4767V43.4765V43.4762V43.476V43.4758V43.4756V43.4753V43.4751V43.4749V43.4747V43.4744V43.4742V43.474V43.4738V43.4735V43.4733V43.4731V43.4729V43.4726V43.4724V43.4722V43.472V43.4718V43.4715V43.4713V43.4711V43.4709V43.4706V43.4704V43.4702V43.47V43.4697V43.4695V43.4693V43.4691V43.4688V43.4686V43.4684V43.4682V43.4679V43.4677V43.4675V43.4673V43.467V43.4668V43.4666V43.4664V43.4661V43.4659V43.4657V43.4655V43.4652V43.465V43.4648V43.4646V43.4643V43.4641V43.4639V43.4637V43.4634V43.4632V43.463V43.4628V43.4625V43.4623V43.4621V43.4619V43.4616V43.4614V43.4612V43.461V43.4607V43.4605V43.4603V43.4601V43.4598V43.4596V43.4594V43.4592V43.4589V43.4587V43.4585V43.4583V43.458V28.1946L28.6963 26.1075L31.6117 28.1974V29.6736ZM31.7858 40.4984L31.7851 40.4999C31.3831 41.4012 31.1547 42.4034 31.1547 43.458C31.1547 47.4669 34.403 50.7153 38.4119 50.7153C42.4208 50.7153 45.6692 47.4669 45.6692 43.458C45.6692 39.4492 42.4208 36.2008 38.4119 36.2008C35.4532 36.2008 32.9152 37.9712 31.7858 40.4984Z" fill="white" stroke="white" stroke-width="4"/>
</svg>
